<?xml version="1.0" encoding="utf-8"?>
<!-- Generator: Adobe Illustrator 17.0.0, SVG Export Plug-In . SVG Version: 6.00 Build 0)  -->
<!DOCTYPE svg PUBLIC "-//W3C//DTD SVG 1.1//EN" "http://www.w3.org/Graphics/SVG/1.1/DTD/svg11.dtd">
<svg version="1.1" id="Layer_1" xmlns="http://www.w3.org/2000/svg" xmlns:xlink="http://www.w3.org/1999/xlink" x="0px" y="0px"
	 width="138px" height="43px" viewBox="0 0 138 43" enable-background="new 0 0 138 43" xml:space="preserve">
<g>
	<path fill="#808285" d="M13.933,12.604v16.487h-2.149L3.138,15.981v13.109H0.989V12.604h2.149l8.645,13.086V12.604H13.933z"/>
	<path fill="#808285" d="M22.014,29.304c-3.685,0-6.401-2.599-6.401-6.709c0-4.086,2.622-6.661,6.401-6.661
		c3.755,0,6.212,2.646,6.212,6.189c0,0.472-0.023,0.85-0.071,1.299H17.81c0.166,2.622,2.008,4.063,4.205,4.063
		c1.937,0,3.165-0.992,3.638-2.386h2.314C27.305,27.461,25.227,29.304,22.014,29.304z M17.833,21.674h8.173
		c0.024-2.527-1.866-3.921-4.086-3.921C19.817,17.753,18.069,19.146,17.833,21.674z"/>
	<path fill="#808285" d="M28.346,16.146h2.197l2.977,10.866l3.212-10.866h2.196l3.142,10.89l2.929-10.89h2.126l-4.04,12.944h-2.22
		l-3.118-10.275l-3.118,10.275h-2.22L28.346,16.146z"/>
	<path fill="#808285" d="M58.515,22.217H55.35v6.874H53.2V12.627h5.314c3.874,0,5.693,2.125,5.693,4.819
		C64.208,19.949,62.601,22.217,58.515,22.217z M58.515,20.445c2.457,0,3.496-1.157,3.496-2.999c0-1.914-1.04-3.047-3.496-3.047
		H55.35v6.046H58.515z"/>
	<path fill="#808285" d="M67.846,29.091h-2.149V16.146h2.149v2.103c0.732-1.441,2.126-2.338,4.181-2.338v2.22H71.46
		c-2.054,0-3.614,0.921-3.614,3.921V29.091z"/>
	<path fill="#808285" d="M78.973,29.304c-3.661,0-6.448-2.599-6.448-6.709c0-4.086,2.882-6.661,6.543-6.661
		c3.685,0,6.543,2.575,6.543,6.661C85.61,26.705,82.658,29.304,78.973,29.304z M78.973,27.414c2.244,0,4.441-1.536,4.441-4.819
		c0-3.259-2.15-4.795-4.37-4.795c-2.268,0-4.323,1.536-4.323,4.795C74.721,25.878,76.729,27.414,78.973,27.414z"/>
	<path fill="#808285" d="M89.487,16.146v15.755c0,2.339-1.229,3.331-3.425,3.331h-1.252v-1.819h0.897c1.181,0,1.63-0.425,1.63-1.559
		V16.146H89.487z M86.983,12.58c0-0.827,0.638-1.464,1.441-1.464c0.803,0,1.44,0.638,1.44,1.464s-0.638,1.464-1.44,1.464
		C87.621,14.044,86.983,13.407,86.983,12.58z"/>
	<path fill="#808285" d="M97.542,29.304c-3.685,0-6.401-2.599-6.401-6.709c0-4.086,2.622-6.661,6.401-6.661
		c3.756,0,6.212,2.646,6.212,6.189c0,0.472-0.023,0.85-0.07,1.299H93.338c0.165,2.622,2.007,4.063,4.204,4.063
		c1.937,0,3.165-0.992,3.638-2.386h2.314C102.833,27.461,100.754,29.304,97.542,29.304z M93.361,21.674h8.173
		c0.023-2.527-1.866-3.921-4.087-3.921C95.345,17.753,93.598,19.146,93.361,21.674z"/>
	<path fill="#808285" d="M110.914,15.934c3.213,0,5.314,1.654,5.977,4.37h-2.315c-0.448-1.559-1.748-2.551-3.661-2.551
		c-2.362,0-4.109,1.677-4.109,4.842c0,3.213,1.747,4.89,4.109,4.89c1.913,0,3.188-0.921,3.661-2.551h2.315
		c-0.662,2.574-2.764,4.37-5.977,4.37c-3.685,0-6.307-2.599-6.307-6.709C104.607,18.532,107.229,15.934,110.914,15.934z"/>
	<path fill="#808285" d="M119.042,17.918h-1.677v-1.771h1.677v-3.259h2.149v3.259h3.378v1.771h-3.378v7.63
		c0,1.275,0.473,1.725,1.795,1.725h1.583v1.818h-1.937c-2.291,0-3.591-0.945-3.591-3.543V17.918z"/>
</g>
</svg>
